<svg xmlns="http://www.w3.org/2000/svg" xmlns:xlink="http://www.w3.org/1999/xlink" id="Layer_1" width="40.476" height="41.197" x="0" y="0" enable-background="new 0 0 40.476 41.197" version="1.1" viewBox="0 0 40.476 41.197" xml:space="preserve"><path fill="#333" d="M40.476,37.396l-9.45-9.45c2.279-2.938,3.652-6.611,3.652-10.605C34.678,7.777,26.9,0,17.339,0	C7.778,0,0,7.777,0,17.34C0,26.9,7.778,34.678,17.339,34.678c3.626,0,6.992-1.123,9.778-3.034l9.555,9.554L40.476,37.396z M5.379,17.34c0-6.607,5.354-11.962,11.96-11.962c6.606,0,11.96,5.354,11.96,11.962c0,6.604-5.354,11.959-11.96,11.959	C10.733,29.299,5.379,23.943,5.379,17.34z"/></svg>